<?xml version="1.0" encoding="utf-8"?><svg version="1.1" id="Layer_1" xmlns="http://www.w3.org/2000/svg" xmlns:xlink="http://www.w3.org/1999/xlink" x="0px" y="0px" viewBox="0 0 122.86 122.88" style="enable-background:new 0 0 122.86 122.88" xml:space="preserve"><style type="text/css"><![CDATA[
	.st0{fill:#E31837;}
	.st1{fill:#FFFFFF;}
	.st2{fill:#0078AE;}
]]></style><g><path class="st1" d="M120.68,35.56L87.31,2.19C85.9,0.78,84.03,0,82.03,0c-1.99,0-3.87,0.78-5.27,2.19L48.77,30.18L2.18,76.76 c-2.91,2.91-2.91,7.64,0,10.55l33.38,33.38c1.41,1.41,3.28,2.18,5.27,2.18c1.99,0,3.87-0.78,5.28-2.18l41.76-41.77l32.82-32.82 C123.59,43.2,123.59,38.47,120.68,35.56L120.68,35.56z"/><path class="st0" d="M88.97,47.58c-1.89,1.89-4.37,2.83-6.84,2.83c-2.47,0-4.95-0.94-6.84-2.83c-1.88-1.89-2.83-4.37-2.83-6.84 c0-2.47,0.95-4.95,2.83-6.84c1.89-1.89,4.36-2.84,6.84-2.84c2.47,0,4.95,0.94,6.84,2.84c1.88,1.88,2.83,4.36,2.83,6.84 C91.8,43.22,90.85,45.7,88.97,47.58L88.97,47.58z M118.32,37.94L84.95,4.56c-1.61-1.61-4.22-1.61-5.83,0L43.03,40.65l39.2,39.2 l36.09-36.09C119.93,42.15,119.93,39.54,118.32,37.94L118.32,37.94z"/><path class="st2" d="M48.15,75.46c1.89-1.89,4.37-2.83,6.83-2.83c2.47,0,4.95,0.94,6.83,2.83c1.89,1.89,2.84,4.36,2.84,6.84 c0,2.47-0.94,4.95-2.84,6.83c-1.88,1.88-4.36,2.83-6.83,2.83c-2.47,0-4.95-0.95-6.83-2.83c-1.89-1.89-2.83-4.37-2.83-6.83 C45.31,79.82,46.26,77.34,48.15,75.46L48.15,75.46z M33.45,88.74c-1.89,1.88-4.37,2.82-6.84,2.82c-2.48,0-4.95-0.94-6.84-2.82 c-1.89-1.88-2.83-4.36-2.83-6.83c0-2.47,0.94-4.95,2.83-6.84c1.89-1.88,4.36-2.83,6.84-2.83c2.47,0,4.95,0.94,6.84,2.83 c1.89,1.89,2.83,4.37,2.83,6.84C36.27,84.37,35.33,86.86,33.45,88.74L33.45,88.74z M4.54,79.13c-1.61,1.61-1.61,4.22,0,5.83 l33.38,33.38c0.8,0.8,1.86,1.21,2.91,1.21c1.05,0,2.11-0.4,2.91-1.21l36.07-36.08l-39.2-39.21L4.54,79.13L4.54,79.13z"/><polygon class="st2" points="53.84,119.74 53.84,117.93 53.19,117.93 53.19,117.51 54.97,117.51 54.97,117.93 54.32,117.93 54.32,119.74 53.84,119.74"/><polygon class="st2" points="57.2,119.74 57.2,118.13 56.58,119.74 56.37,119.74 55.74,118.13 55.74,119.74 55.27,119.74 55.27,117.51 55.93,117.51 56.47,118.9 57.01,117.51 57.68,117.51 57.68,119.74 57.2,119.74"/></g></svg>