<svg xmlns="http://www.w3.org/2000/svg"  viewBox="0 0 100 100" width="100px" height="100px"><path fill="#31c4f3" d="M90,44c1.103,0,2,0.897,2,2v16c0,1.103,0.897,2,2,2h3c1.103,0,2-0.897,2-2V43.5 c0-4.136-3.364-7.5-7.5-7.5c-1.595,0-3.076,0.424-4.284,1.227l-0.547,0.364l-0.551-0.359C84.015,35.865,81,35.549,78.5,36.734 l-0.622,0.295l-0.498-0.475C77.006,36.197,76.516,36,76,36h-4c-1.103,0-2,0.897-2,2v24c0,1.103,0.897,2,2,2h3c1.103,0,2-0.897,2-2 V46c0-1.103,0.897-2,2-2s2,0.897,2,2v16c0,1.103,0.897,2,2,2h3c1.103,0,2-0.897,2-2V46C88,44.897,88.897,44,90,44z"/><path fill="#31c4f3" d="M57,36c-1.103,0-2,0.897-2,2v3.005c0,1.098,0.893,1.995,1.99,2l2.001,0.01L59,62.001 C59,63.103,59.897,64,61,64h3c1.103,0,2-0.897,2-2V43h2c1.103,0,2-0.897,2-2v-3c0-1.103-0.897-2-2-2h-2v-2.021 C66,32.925,65,32,63.859,32c-0.646,0-1.324,0.29-1.769,0.755c-0.057,0.06-0.18,0.208-0.296,0.35l-0.162,0.196 c-0.273,0.294-0.516,0.568-0.744,0.826C59.65,35.523,59.168,36,58,36H57z"/><path fill="#375ca9" d="M39,36c-1.103,0-2,0.897-2,2v13c0,2.465,1.481,4.653,3.774,5.572l1.072,0.43l-0.579,1 C41.092,58.304,41,58.649,41,59v3c0,1.103,0.897,2,2,2h5.997c3.308,0,6-2.691,6-5.999L55,38c0-0.535-0.208-1.037-0.586-1.414 C54.036,36.208,53.534,36,53,36h-3c-1.103,0-2,0.897-2,2v11h-3.993L44,37.999C44,36.896,43.102,36,42,36H39z"/><path fill="#375ca9" d="M37.002,41.998C37,38.69,34.309,36,31.002,36H25c-1.103,0-2,0.897-2,2v3.004 c0,0.35,0.092,0.694,0.267,0.995l0.579,0.999l-1.071,0.43C20.481,44.348,19,46.535,19,49v9c0,3.309,2.691,6,6,6h9.009 c0.802,0,1.555-0.312,2.121-0.879c0.567-0.567,0.879-1.321,0.879-2.122L37.002,41.998z M30,55.75c0,0.689-0.561,1.25-1.25,1.25 h-1.5C26.561,57,26,56.439,26,55.75v-4.5c0-0.689,0.561-1.25,1.25-1.25h1.5c0.689,0,1.25,0.561,1.25,1.25V55.75z"/><path fill="#375ca9" d="M13,36H3c-1.103,0-2,0.897-2,2v24c0,1.103,0.897,2,2,2h3c1.103,0,2-0.897,2-2v-6h5 c3.309,0,6-2.691,6-6v-8C19,38.691,16.309,36,13,36z M12,47.5c0,0.827-0.673,1.5-1.5,1.5H9H8v-1v-4v-1h1h1.5 c0.827,0,1.5,0.673,1.5,1.5V47.5z"/><g><path fill="#1f212b" d="M73.5,41c-0.276,0-0.5-0.224-0.5-0.5v-1c0-0.276,0.224-0.5,0.5-0.5s0.5,0.224,0.5,0.5v1 C74,40.776,73.776,41,73.5,41z"/><path fill="#1f212b" d="M73.5,46c-0.276,0-0.5-0.224-0.5-0.5v-3c0-0.276,0.224-0.5,0.5-0.5s0.5,0.224,0.5,0.5v3 C74,45.776,73.776,46,73.5,46z"/><path fill="#1f212b" d="M73.5,61c-0.276,0-0.5-0.224-0.5-0.5v-12c0-0.276,0.224-0.5,0.5-0.5s0.5,0.224,0.5,0.5v12 C74,60.776,73.776,61,73.5,61z"/><path fill="#1f212b" d="M4.5,41C4.224,41,4,40.776,4,40.5v-1C4,39.224,4.224,39,4.5,39S5,39.224,5,39.5v1 C5,40.776,4.776,41,4.5,41z"/><path fill="#1f212b" d="M4.5,47C4.224,47,4,46.776,4,46.5v-4C4,42.224,4.224,42,4.5,42S5,42.224,5,42.5v4 C5,46.776,4.776,47,4.5,47z"/><path fill="#1f212b" d="M4.5,61C4.224,61,4,60.776,4,60.5v-11C4,49.224,4.224,49,4.5,49S5,49.224,5,49.5v11 C5,60.776,4.776,61,4.5,61z"/><path fill="#1f212b" d="M63.859,33C64.506,33,65,33.52,65,33.979C65,34.064,65,37,65,37h3c0.552,0,1,0.448,1,1v3 c0,0.552-0.448,1-1,1h-3v20c0,0.552-0.448,1-1,1h-3c-0.552,0-1-0.447-1-1V42.019l-3.005-0.014c-0.55-0.003-0.995-0.45-0.995-1V38 c0-0.552,0.448-1,1-1h1c2,0,2.691-1.214,4.363-3.016c0.083-0.09,0.365-0.448,0.451-0.539C63.074,33.173,63.476,33,63.859,33 M63.859,31c-0.925,0-1.856,0.398-2.492,1.065c-0.064,0.068-0.21,0.239-0.346,0.406c-0.056,0.069-0.11,0.136-0.145,0.175 c-0.26,0.279-0.514,0.566-0.752,0.834C58.916,34.844,58.697,35,58,35h-1c-1.654,0-3,1.346-3,3v3.005c0,1.646,1.339,2.992,2.986,3 L58,44.01v17.991C58,63.655,59.346,65,61,65h3c1.654,0,3-1.346,3-3V44h1c1.654,0,3-1.346,3-3v-3c0-1.654-1.346-3-3-3h-1v-1.021 C67,32.364,65.562,31,63.859,31L63.859,31z"/><path fill="#1f212b" d="M13,37c2.761,0,5,2.239,5,5v8c0,2.761-2.239,5-5,5H7v7c0,0.552-0.448,1-1,1H3c-0.552,0-1-0.448-1-1 V38c0-0.552,0.448-1,1-1H13 M13,35H3c-1.654,0-3,1.346-3,3v24c0,1.654,1.346,3,3,3h3c1.654,0,3-1.346,3-3v-5h4c3.86,0,7-3.14,7-7 v-8C20,38.14,16.86,35,13,35L13,35z"/><path fill="#1f212b" d="M31.002,37c2.761,0,4.997,2.237,4.998,4.998v19.001C36,62.104,35.105,63,34,63h-9 c-2.761,0-5-2.239-5-5v-9c0-2.761,2.239-5,5-5h5.01c0.547,0,0.99-0.443,0.99-0.99v-0.004c0-0.546-0.441-0.988-0.987-0.99 l-5.017-0.012c-0.551-0.002-0.996-0.449-0.996-1V38c0-0.552,0.448-1,1-1H31.002 M31.002,35H25c-1.654,0-3,1.346-3,3v3.004 c0,0.544,0.146,1.055,0.401,1.496C19.824,43.534,18,46.058,18,49v9c0,3.86,3.14,7,7,7h9.009c1.069,0,2.073-0.416,2.829-1.172 C37.594,63.072,38,62.067,38,60.999V41.998C37.999,38.139,34.86,35,31.002,35L31.002,35z"/><path fill="#1f212b" d="M10.5,44c0.276,0,0.5,0.224,0.5,0.5v3c0,0.276-0.224,0.5-0.5,0.5H9v-4H10.5 M10.5,42H9H7v2v4v2h2 h1.5c1.378,0,2.5-1.122,2.5-2.5v-3C13,43.122,11.878,42,10.5,42L10.5,42z"/><path fill="#1f212b" d="M53,37c0.552,0,1,0.448,1,1v20.001C54,60.762,51.758,63,48.997,63H43c-0.552,0-1-0.448-1-1v-3 c0-0.552,0.448-1,1-1h5c0.552,0,1-0.448,1-1s-0.448-1-1-1h-5c-2.761,0-5-2.239-5-5V38c0-0.552,0.448-1,1-1h3 c0.552,0,1,0.447,1,0.999L43.007,49c0,0.552,0.448,0.999,1,0.999H48c0.552,0,1-0.448,1-1V38c0-0.552,0.448-1,1-1H53 M53,35h-3 c-1.654,0-3,1.346-3,3v10h-2V37.998C44.999,36.345,43.653,35,42,35h-3c-1.654,0-3,1.346-3,3v13c0,2.942,1.825,5.467,4.402,6.5 C40.147,57.942,40,58.454,40,59v3c0,1.654,1.346,3,3,3h5.997c3.859,0,6.999-3.14,7-6.999L56,38c0-0.801-0.312-1.555-0.879-2.122 C54.555,35.312,53.801,35,53,35L53,35z"/><path fill="#1f212b" d="M28.75,51c0.138,0,0.25,0.112,0.25,0.25v4.5c0,0.138-0.112,0.25-0.25,0.25h-1.5 C27.112,56,27,55.888,27,55.75v-4.5c0-0.138,0.112-0.25,0.25-0.25H28.75 M28.75,49h-1.5C26.009,49,25,50.009,25,51.25v4.5 c0,1.241,1.009,2.25,2.25,2.25h1.5c1.241,0,2.25-1.009,2.25-2.25v-4.5C31,50.009,29.991,49,28.75,49L28.75,49z"/><path fill="#1f212b" d="M91.5,37c3.59,0,6.5,2.91,6.5,6.5c0,0.207,0,18.5,0,18.5c0,0.552-0.448,1-1,1h-3 c-0.552,0-1-0.448-1-1c0,0,0-15.757,0-16c0-1.657-1.343-3-3-3s-3,1.343-3,3c0,0.204,0,16,0,16c0,0.552-0.448,1-1,1h-3 c-0.552,0-1-0.448-1-1c0,0,0-15.769,0-16c0-1.657-1.343-3-3-3s-3,1.343-3,3c0,0.231,0,16,0,16c0,0.552-0.448,1-1,1h-3 c-0.552,0-1-0.448-1-1V38c0-0.552,0.448-1,1-1h4c0.552,0,1,0.448,1,1v1c1.22-1.209,2.897-2,4.75-2c1.95,0,3.697,0.678,4.929,2 C87.868,37.68,89.583,37,91.5,37 M91.5,35c-1.808,0-3.471,0.486-4.838,1.394C85.268,35.486,83.578,35,81.75,35 c-1.283,0-2.533,0.287-3.679,0.831C77.532,35.316,76.802,35,76,35h-4c-1.654,0-3,1.346-3,3v24c0,1.654,1.346,3,3,3h3 c1.654,0,3-1.346,3-3V46c0-0.551,0.449-1,1-1s1,0.449,1,1v16c0,1.654,1.346,3,3,3h3c1.654,0,3-1.346,3-3V46c0-0.551,0.449-1,1-1 s1,0.449,1,1v16c0,1.654,1.346,3,3,3h3c1.654,0,3-1.346,3-3V43.5C100,38.813,96.187,35,91.5,35L91.5,35z"/></g></svg>